<svg id="visual" viewBox="0 0 960 540" width="960" height="540" xmlns="http://www.w3.org/2000/svg" xmlns:xlink="http://www.w3.org/1999/xlink" version="1.1"><rect x="0" y="0" width="960" height="540" fill="#1c1917"></rect><path d="M0 511L42 507L83 498L125 511L167 495L209 497L250 508L292 511L334 490L376 500L417 490L459 491L501 508L543 510L584 502L626 497L668 493L710 491L751 511L793 516L835 509L877 513L918 513L960 493L960 541L918 541L877 541L835 541L793 541L751 541L710 541L668 541L626 541L584 541L543 541L501 541L459 541L417 541L376 541L334 541L292 541L250 541L209 541L167 541L125 541L83 541L42 541L0 541Z" fill="#43cea2"></path><path d="M0 496L42 513L83 521L125 502L167 510L209 522L250 506L292 499L334 498L376 501L417 502L459 518L501 494L543 506L584 513L626 517L668 509L710 521L751 505L793 501L835 498L877 505L918 513L960 501L960 541L918 541L877 541L835 541L793 541L751 541L710 541L668 541L626 541L584 541L543 541L501 541L459 541L417 541L376 541L334 541L292 541L250 541L209 541L167 541L125 541L83 541L42 541L0 541Z" fill="#00bbb6"></path><path d="M0 510L42 520L83 502L125 515L167 519L209 521L250 503L292 506L334 524L376 503L417 504L459 515L501 516L543 514L584 505L626 520L668 505L710 516L751 514L793 505L835 507L877 520L918 522L960 523L960 541L918 541L877 541L835 541L793 541L751 541L710 541L668 541L626 541L584 541L543 541L501 541L459 541L417 541L376 541L334 541L292 541L250 541L209 541L167 541L125 541L83 541L42 541L0 541Z" fill="#00a5bd"></path><path d="M0 518L42 526L83 521L125 514L167 517L209 509L250 529L292 523L334 514L376 529L417 526L459 511L501 516L543 511L584 523L626 519L668 525L710 514L751 516L793 515L835 512L877 516L918 521L960 529L960 541L918 541L877 541L835 541L793 541L751 541L710 541L668 541L626 541L584 541L543 541L501 541L459 541L417 541L376 541L334 541L292 541L250 541L209 541L167 541L125 541L83 541L42 541L0 541Z" fill="#008db7"></path><path d="M0 525L42 522L83 528L125 523L167 532L209 526L250 533L292 517L334 532L376 523L417 529L459 520L501 527L543 519L584 526L626 523L668 524L710 525L751 517L793 530L835 526L877 527L918 527L960 532L960 541L918 541L877 541L835 541L793 541L751 541L710 541L668 541L626 541L584 541L543 541L501 541L459 541L417 541L376 541L334 541L292 541L250 541L209 541L167 541L125 541L83 541L42 541L0 541Z" fill="#0074ad"></path><path d="M0 534L42 526L83 534L125 538L167 527L209 526L250 536L292 537L334 536L376 529L417 527L459 525L501 535L543 534L584 536L626 534L668 525L710 529L751 528L793 531L835 536L877 525L918 535L960 534L960 541L918 541L877 541L835 541L793 541L751 541L710 541L668 541L626 541L584 541L543 541L501 541L459 541L417 541L376 541L334 541L292 541L250 541L209 541L167 541L125 541L83 541L42 541L0 541Z" fill="#185a9d"></path></svg>