<svg id="visual" viewBox="0 0 960 540" width="960" height="540" xmlns="http://www.w3.org/2000/svg" xmlns:xlink="http://www.w3.org/1999/xlink" version="1.1"><rect x="0" y="0" width="960" height="540" fill="#252323"></rect><path d="M0 518L42 509L83 502L125 522L167 518L209 523L250 502L292 495L334 510L376 487L417 494L459 504L501 508L543 487L584 519L626 507L668 507L710 494L751 520L793 498L835 525L877 494L918 506L960 488L960 541L918 541L877 541L835 541L793 541L751 541L710 541L668 541L626 541L584 541L543 541L501 541L459 541L417 541L376 541L334 541L292 541L250 541L209 541L167 541L125 541L83 541L42 541L0 541Z" fill="#bc24b8"></path><path d="M0 498L42 508L83 515L125 494L167 508L209 499L250 521L292 517L334 500L376 509L417 523L459 515L501 517L543 501L584 511L626 504L668 529L710 498L751 510L793 505L835 494L877 505L918 520L960 507L960 541L918 541L877 541L835 541L793 541L751 541L710 541L668 541L626 541L584 541L543 541L501 541L459 541L417 541L376 541L334 541L292 541L250 541L209 541L167 541L125 541L83 541L42 541L0 541Z" fill="#e92092"></path><path d="M0 501L42 526L83 521L125 507L167 511L209 525L250 525L292 522L334 503L376 509L417 517L459 508L501 501L543 507L584 509L626 501L668 526L710 530L751 506L793 521L835 522L877 528L918 501L960 510L960 541L918 541L877 541L835 541L793 541L751 541L710 541L668 541L626 541L584 541L543 541L501 541L459 541L417 541L376 541L334 541L292 541L250 541L209 541L167 541L125 541L83 541L42 541L0 541Z" fill="#fd466f"></path><path d="M0 530L42 530L83 529L125 509L167 522L209 511L250 526L292 513L334 507L376 522L417 522L459 509L501 523L543 513L584 519L626 518L668 510L710 530L751 526L793 522L835 530L877 527L918 508L960 509L960 541L918 541L877 541L835 541L793 541L751 541L710 541L668 541L626 541L584 541L543 541L501 541L459 541L417 541L376 541L334 541L292 541L250 541L209 541L167 541L125 541L83 541L42 541L0 541Z" fill="#ff7055"></path><path d="M0 516L42 521L83 521L125 527L167 526L209 527L250 532L292 520L334 521L376 533L417 521L459 527L501 514L543 517L584 521L626 513L668 531L710 533L751 516L793 523L835 530L877 519L918 533L960 518L960 541L918 541L877 541L835 541L793 541L751 541L710 541L668 541L626 541L584 541L543 541L501 541L459 541L417 541L376 541L334 541L292 541L250 541L209 541L167 541L125 541L83 541L42 541L0 541Z" fill="#ff9846"></path><path d="M0 522L42 528L83 531L125 523L167 531L209 537L250 523L292 532L334 527L376 532L417 529L459 533L501 525L543 521L584 533L626 521L668 523L710 529L751 535L793 534L835 535L877 535L918 519L960 520L960 541L918 541L877 541L835 541L793 541L751 541L710 541L668 541L626 541L584 541L543 541L501 541L459 541L417 541L376 541L334 541L292 541L250 541L209 541L167 541L125 541L83 541L42 541L0 541Z" fill="#f5c047"></path><path d="M0 530L42 535L83 534L125 538L167 529L209 535L250 531L292 531L334 527L376 526L417 533L459 528L501 532L543 532L584 533L626 527L668 528L710 533L751 532L793 537L835 531L877 536L918 538L960 530L960 541L918 541L877 541L835 541L793 541L751 541L710 541L668 541L626 541L584 541L543 541L501 541L459 541L417 541L376 541L334 541L292 541L250 541L209 541L167 541L125 541L83 541L42 541L0 541Z" fill="#e1e561"></path></svg>